<svg
                width="24"
                height="24"
                viewBox="0 0 24 24"
                fill="none"
                xmlns="http://www.w3.org/2000/svg"
              >
                <path
                  fill-rule="evenodd"
                  clip-rule="evenodd"
                  d="M12 2.25C6.61522 2.25 2.25 6.61522 2.25 12C2.25 17.3848 6.61522 21.75 12 21.75C17.3848 21.75 21.75 17.3848 21.75 12C21.75 6.61522 17.3848 2.25 12 2.25ZM3.75 12C3.75 7.44365 7.44365 3.75 12 3.75C16.5563 3.75 20.25 7.44365 20.25 12C20.25 16.5563 16.5563 20.25 12 20.25C7.44365 20.25 3.75 16.5563 3.75 12ZM16.2803 8.21967C16.5732 8.51256 16.5732 8.98744 16.2803 9.28033L10.7803 14.7803C10.4874 15.0732 10.0126 15.0732 9.71967 14.7803L7.21967 12.2803C6.92678 11.9874 6.92678 11.5126 7.21967 11.2197C7.51256 10.9268 7.98744 10.9268 8.28033 11.2197L10.25 13.1893L15.2197 8.21967C15.5126 7.92678 15.9874 7.92678 16.2803 8.21967Z"
                  fill="currentColor"
                />
              </svg>
