<svg
                width="24"
                height="24"
                viewBox="0 0 24 24"
                fill="none"
                xmlns="http://www.w3.org/2000/svg"
              >
                <path
                  fill-rule="evenodd"
                  clip-rule="evenodd"
                  d="M4.75 3.75C4.33579 3.75 4 4.08579 4 4.5V19.5C4 19.9142 4.33579 20.25 4.75 20.25H19.25C19.6642 20.25 20 19.9142 20 19.5V4.5C20 4.08579 19.6642 3.75 19.25 3.75H4.75ZM5.5 5.25V18.75H18.5V5.25H5.5ZM7.25 8.25C7.25 7.83579 7.58579 7.5 8 7.5H16C16.4142 7.5 16.75 7.83579 16.75 8.25C16.75 8.66421 16.4142 9 16 9H8C7.58579 9 7.25 8.66421 7.25 8.25ZM7.25 12C7.25 11.5858 7.58579 11.25 8 11.25H16C16.4142 11.25 16.75 11.5858 16.75 12C16.75 12.4142 16.4142 12.75 16 12.75H8C7.58579 12.75 7.25 12.4142 7.25 12ZM7.25 15.75C7.25 15.3358 7.58579 15 8 15H12C12.4142 15 12.75 15.3358 12.75 15.75C12.75 16.1642 12.4142 16.5 12 16.5H8C7.58579 16.5 7.25 16.1642 7.25 15.75Z"
                  fill="currentColor"
                />
              </svg>
