<svg
                width="24"
                height="24"
                viewBox="0 0 24 24"
                fill="none"
                xmlns="http://www.w3.org/2000/svg"
              >
                <path
                  fill-rule="evenodd"
                  clip-rule="evenodd"
                  d="M12 2.25C11.5858 2.25 11.25 2.58579 11.25 3V4.3269C10.0815 4.73638 9.25 5.85181 9.25 7.125C9.25 8.39819 10.0815 9.51362 11.25 9.9231V14.0769C10.0815 14.4864 9.25 15.6018 9.25 16.875C9.25 18.1482 10.0815 19.2636 11.25 19.6731V21C11.25 21.4142 11.5858 21.75 12 21.75C12.4142 21.75 12.75 21.4142 12.75 21V19.6731C13.9185 19.2636 14.75 18.1482 14.75 16.875C14.75 15.6018 13.9185 14.4864 12.75 14.0769V9.9231C13.9185 9.51362 14.75 8.39819 14.75 7.125C14.75 5.85181 13.9185 4.73638 12.75 4.3269V3C12.75 2.58579 12.4142 2.25 12 2.25ZM10.75 7.125C10.75 6.36193 11.3619 5.75 12.125 5.75C12.8881 5.75 13.5 6.36193 13.5 7.125C13.5 7.88807 12.8881 8.5 12.125 8.5C11.3619 8.5 10.75 7.88807 10.75 7.125ZM10.75 16.875C10.75 16.1119 11.3619 15.5 12.125 15.5C12.8881 15.5 13.5 16.1119 13.5 16.875C13.5 17.6381 12.8881 18.25 12.125 18.25C11.3619 18.25 10.75 17.6381 10.75 16.875Z"
                  fill="currentColor"
                />
              </svg>
