<svg
                width="24"
                height="24"
                viewBox="0 0 24 24"
                fill="none"
                xmlns="http://www.w3.org/2000/svg"
              >
                <path
                  fill-rule="evenodd"
                  clip-rule="evenodd"
                  d="M4.75 5.5C4.75 4.5335 5.5335 3.75 6.5 3.75H17.5C18.4665 3.75 19.25 4.5335 19.25 5.5V8.5C19.25 8.91421 18.9142 9.25 18.5 9.25C17.5335 9.25 16.75 10.0335 16.75 11C16.75 11.9665 17.5335 12.75 18.5 12.75C18.9142 12.75 19.25 13.0858 19.25 13.5V16.5C19.25 17.4665 18.4665 18.25 17.5 18.25H6.5C5.5335 18.25 4.75 17.4665 4.75 16.5V13.5C4.75 13.0858 5.08579 12.75 5.5 12.75C6.4665 12.75 7.25 11.9665 7.25 11C7.25 10.0335 6.4665 9.25 5.5 9.25C5.08579 9.25 4.75 8.91421 4.75 8.5V5.5ZM6.5 5.25C6.36193 5.25 6.25 5.36193 6.25 5.5V7.8269C7.41846 8.23638 8.25 9.35181 8.25 10.625C8.25 11.8982 7.41846 13.0136 6.25 13.4231V15.75C6.25 15.8881 6.36193 16 6.5 16H17.5C17.6381 16 17.75 15.8881 17.75 15.75V13.4231C16.5815 13.0136 15.75 11.8982 15.75 10.625C15.75 9.35181 16.5815 8.23638 17.75 7.8269V5.5C17.75 5.36193 17.6381 5.25 17.5 5.25H6.5Z"
                  fill="currentColor"
                />
              </svg>
